<svg preserveAspectRatio="none" overflow="visible" style="display: block;" width="20" height="20" viewBox="0 0 20 20" fill="none" xmlns="http://www.w3.org/2000/svg">
<g id="skip-back-15">
<path id="Vector" d="M2.25 14.9994V3.0006M13.4783 3.21434C13.7059 3.07778 13.9657 3.00407 14.2311 3.00072C14.4965 2.99737 14.7581 3.06451 14.9891 3.19528C15.22 3.32605 15.4122 3.51578 15.5459 3.74508C15.6796 3.97438 15.75 4.23504 15.75 4.50046V13.4995C15.75 13.765 15.6796 14.0256 15.5459 14.2549C15.4122 14.4842 15.22 14.6739 14.9891 14.8047C14.7581 14.9355 14.4965 15.0026 14.2311 14.9993C13.9657 14.9959 13.7059 14.9222 13.4783 14.7857L5.98061 10.2876C5.75803 10.1546 5.57373 9.96626 5.44568 9.74083C5.31762 9.51541 5.25019 9.26064 5.24997 9.00139C5.24974 8.74214 5.31672 8.48725 5.44438 8.2616C5.57204 8.03595 5.75602 7.84724 5.97836 7.71388L13.4783 3.21434Z" stroke="#1A1111" stroke-width="2" stroke-linecap="round"/>
</g>
</svg>
